<svg width="25" height="26" viewBox="0 0 25 26" fill="none" xmlns="http://www.w3.org/2000/svg">
<path d="M12.7394 25.4788C5.71539 25.4788 0 19.7634 0 12.7394C0 5.71539 5.71539 0 12.7394 0C18.0099 0 22.6633 3.1709 24.5962 8.0792C24.7722 8.52494 24.5521 9.02879 24.1063 9.20586C23.6604 9.37975 23.1565 9.16302 22.9794 8.71495C21.3106 4.47612 17.2908 1.73718 12.7394 1.73718C6.67304 1.73718 1.73718 6.67325 1.73718 12.7394C1.73718 18.8055 6.67304 23.7416 12.7394 23.7416C17.2908 23.7416 21.3106 21.0026 22.9794 16.7651C23.1555 16.3168 23.6593 16.1003 24.1063 16.274C24.5521 16.45 24.7722 16.9549 24.5962 17.4008C22.6633 22.3079 18.0099 25.4788 12.7394 25.4788Z" fill="white"/>
</svg>
