<svg width="22" height="22" viewBox="0 0 22 22" fill="none" xmlns="http://www.w3.org/2000/svg">
<path d="M17.8326 9.53867C17.4766 9.53867 17.188 9.82726 17.188 10.1832V19.6366C17.188 20.229 16.7061 20.7109 16.1138 20.7109H2.36336C1.77101 20.7109 1.2891 20.229 1.2891 19.6366V5.88621C1.2891 5.29387 1.77101 4.81196 2.36336 4.81196H11.8168C12.1727 4.81196 12.4613 4.52337 12.4613 4.16741C12.4613 3.81144 12.1727 3.52286 11.8168 3.52286H2.36336C1.0602 3.52286 0 4.58306 0 5.88621V19.6366C0 20.9398 1.0602 22 2.36336 22H16.1138C17.4169 22 18.4771 20.9398 18.4771 19.6366V10.1832C18.4771 9.82726 18.1886 9.53867 17.8326 9.53867Z" fill="white"/>
<path d="M21.5602 1.65522L20.3448 0.439808C19.7584 -0.146562 18.8043 -0.146562 18.2179 0.439808L8.49491 10.1628C8.40493 10.2528 8.34362 10.3674 8.31861 10.4922L7.71088 13.5306C7.66864 13.742 7.73477 13.9604 7.88719 14.1128C8.00926 14.2349 8.17371 14.3016 8.34293 14.3016C8.385 14.3016 8.42728 14.2975 8.4693 14.2891L11.5078 13.6814C11.6325 13.6564 11.7471 13.5951 11.8371 13.5051L21.5602 3.78211C21.5602 3.78211 21.5602 3.78211 21.5602 3.78206C22.1466 3.19574 22.1466 2.24163 21.5602 1.65522ZM11.0636 12.4556L9.1646 12.8354L9.54446 10.9364L17.4583 3.02248L18.9775 4.54173L11.0636 12.4556ZM20.6487 2.87058L19.889 3.63021L18.3698 2.11096L19.1294 1.35137C19.2132 1.26758 19.3495 1.26754 19.4333 1.35133L20.6486 2.56674C20.7325 2.65049 20.7325 2.78683 20.6487 2.87058Z" fill="white"/>
</svg>
